<svg version="1.1" xmlns="http://www.w3.org/2000/svg" xmlns:xlink="http://www.w3.org/1999/xlink" width="395.80896" height="60.56738" viewBox="0,0,395.80896,60.56738"><g transform="translate(-41.96464,-149.77448)"><g data-paper-data="{&quot;isPaintingLayer&quot;:true}" fill="#c77dff" fill-rule="nonzero" stroke="#9d4edd" stroke-width="2.5" stroke-linecap="round" stroke-linejoin="miter" stroke-miterlimit="10" stroke-dasharray="" stroke-dashoffset="0" style="mix-blend-mode: normal"><path d="M70.97307,165.74591l-5.33198,-0.23183l-1.97052,3.24556l2.08643,3.01373l9.38892,3.79252l8.92529,5.91155l3.12964,10.66397l-4.05694,10.8958l-10.43215,5.91155l-13.44587,-0.69548l-10.0844,-3.47738l-5.56381,-6.25929l8.69345,-10.31623l2.43416,2.666l6.49111,3.7092l7.41841,1.39095l1.7387,-3.82512l-3.24556,-4.98424l-12.51857,-5.62086l-6.83885,-6.72294l-0.81139,-9.0412l4.05694,-7.65023l7.76615,-5.79564l9.1571,-1.27504l9.62076,3.01373l8.80936,6.95476l-8.34571,9.96849z"/><path d="M87.20085,156.09255l38.48302,1.39095l-0.46365,13.44588l-12.98222,-0.9273l0.9273,38.94667h-12.05492l-0.46365,-38.94667l-12.05492,-0.46365z"/><path d="M125.68386,207.81813l5.51175,-51.72557h19.92706l13.99134,52.85619l-14.41532,-0.42398l-5.37042,-17.52451l-4.80511,0.42398l-1.69592,16.81788zM144.92532,180.11528l-3.23735,-10.92589l-1.84716,11.11853z" data-paper-data="{&quot;index&quot;:null}"/><path d="M296.59259,192.62081l-1.86968,14.93698l-12.60635,-0.46365l-1.39095,-51.00159l23.89444,1.8546l9.27302,9.73666v10.20032l-6.95477,7.88206l11.12762,23.18254l-13.59127,-0.9273zM300.04983,175.4654l-0.49084,-4.67065l-5.24527,-2.60713l0.41233,9.55122z"/><path d="M227.42784,169.50771l-4.86772,-0.21165l-1.79894,2.96296l1.90475,2.75132l8.57141,3.46229l8.14812,5.39682l2.85713,9.73542l-3.70369,9.94707l-9.52379,5.39681l-12.2751,-0.63492l-9.20632,-3.1746l-5.07935,-5.71427l5.61823,-7.56336l5.00412,2.8975l5.46226,1.06799l6.50517,-1.29492l-1.10835,-5.47756l-11.42855,-5.13143l-6.24337,-6.13755l-0.74074,-8.25395l3.7037,-6.98412l7.08993,-5.29099l8.35977,-1.16402l8.78304,2.75132l8.04231,6.3492l-4.83713,7.70955z"/><path d="M279.33466,169.53843l-12.05493,-0.07559l-0.46365,38.87926l-12.05492,0.60665l0.9273,-38.1378l-12.98222,0.11844l-0.46365,-13.44587l38.48301,-1.39095z" data-paper-data="{&quot;index&quot;:null}"/><path d="M318.06592,163.28563l12.96803,-0.58871l0.68281,14.88997l3.54381,9.61339l4.42092,2.06049l5.01037,-2.6492l0.37815,-9.49878l-2.80473,-14.82145l12.93636,-0.18312l2.78098,17.64981l-0.12843,15.0236l-5.59983,10.59678l-11.78911,3.23791l-15.91531,-5.59275l-4.43862,-17.0494z"/><path d="M396.88877,156.09255l0.50527,17.06377l-12.77968,0.89847l-8.25092,4.66306l-1.76846,5.81719l2.27373,6.59282l8.15256,0.49758l12.72087,-3.69056l0.15717,17.02212l-15.14837,3.65931l-12.89436,-0.169l-9.09494,-7.36845l-2.77901,-15.51252l4.80011,-20.94191l14.63306,-5.84049z"/><path d="M434.99138,169.53843l-12.05492,0.46365l-0.46366,38.94667h-12.05492l0.9273,-38.94667l-12.98222,0.9273l-0.46365,-13.44587l38.48302,-1.39095z" data-paper-data="{&quot;index&quot;:null}"/><path d="M180.98099,193.54812l-0.86968,14.93698l-13.60635,-0.46365l-1.39095,-51.00158l23.89444,1.8546l9.27302,9.73667v10.20031l-6.95477,5.88206l11.12762,23.51587l-13.59127,0.73936zM178.26033,178.56544l7.01465,-2.95971l-0.50028,-5.59184l-7.68467,-2.61411z"/></g></g></svg>