<svg version="1.1" xmlns="http://www.w3.org/2000/svg" xmlns:xlink="http://www.w3.org/1999/xlink" width="86.3409" height="60.44143" viewBox="0,0,86.3409,60.44143"><g transform="translate(-196.66125,-149.77447)"><g data-paper-data="{&quot;isPaintingLayer&quot;:true}" fill="#c77dff" fill-rule="nonzero" stroke="#9d4edd" stroke-width="2.5" stroke-linecap="round" stroke-linejoin="miter" stroke-miterlimit="10" stroke-dasharray="" stroke-dashoffset="0" style="mix-blend-mode: normal"><path d="M225.66968,165.7459l-5.33198,-0.23183l-1.97052,3.24556l2.08643,3.01373l9.38892,3.79252l8.92529,5.91155l3.12964,10.66397l-4.05694,10.8958l-10.43215,5.91155l-13.44587,-0.69548l-10.0844,-3.47738l-5.56381,-6.25929l8.69345,-10.31623l2.43416,2.666l6.49111,3.7092l7.41841,1.39095l1.7387,-3.82512l-3.24556,-4.98424l-12.51857,-5.62086l-6.83885,-6.72294l-0.81139,-9.0412l4.05694,-7.65023l7.76615,-5.79564l9.1571,-1.27504l9.62076,3.01373l8.80936,6.95476l-8.34571,9.96849z"/><path d="M266.87096,169.50771l-4.86772,-0.21165l-1.79894,2.96296l1.90475,2.75132l8.57141,3.46229l8.14812,5.39682l2.85713,9.73542l-3.70369,9.94707l-9.52379,5.39681l-12.2751,-0.63492l-9.20632,-3.1746l-5.07935,-5.71427l5.61823,-7.56336l5.00412,2.8975l5.46226,1.06799l6.50517,-1.29492l-1.10835,-5.47756l-11.42855,-5.13143l-6.24337,-6.13755l-0.74074,-8.25395l3.7037,-6.98412l7.08993,-5.29099l8.35977,-1.16402l8.78304,2.75132l8.04231,6.3492l-4.83713,7.70955z"/></g></g></svg>