<svg xmlns="http://www.w3.org/2000/svg" viewBox="0 0 400 400"><path fill-rule="evenodd" d="M153 2c-8 4-8 6-12 35l-4 24-6 3-13 8-7 4-22-9C51 52 55 50 28 98 3 140 5 136 5 142c0 10 0 10 25 29l18 14v30l-16 13C9 245 9 246 7 249c-2 5-2 13 0 17l41 70c7 9 12 9 41-3l23-9 5 3 12 8 8 4 4 25c4 28 4 29 11 33l3 3h43c60 0 56 3 61-36l4-24 6-4 13-7 7-5 22 9c38 15 34 17 62-32 24-41 22-37 22-43 0-10 0-10-27-30l-16-13v-30l16-13c23-17 23-18 25-21 3-5 2-13 0-17l-41-71c-7-8-13-7-40 4-19 7-23 9-25 8l-7-5-11-6-6-4-4-24c-5-39 0-36-59-36-42 0-43 0-47 2m63 134a66 66 0 1 1-32 128 66 66 0 0 1 32-128"/></svg>